<svg xmlns="http://www.w3.org/2000/svg" xmlns:xlink="http://www.w3.org/1999/xlink" xmlns:sketch="http://www.bohemiancoding.com/sketch/ns" viewBox="0 0 100 125" version="1.1" x="0px" y="0px"><title>money3</title><desc>Created with Sketch.</desc><g stroke="none" stroke-width="1" fill="none" fill-rule="evenodd" sketch:type="MSPage"><path d="M40.9150718,48.2973846 C40.9150718,52.1087692 44.5669834,53.5238462 48.8830055,54.722 L48.8830055,41.6549231 C44.2903867,41.8727692 40.9150718,44.5949231 40.9150718,48.2973846 L40.9150718,48.2973846 Z M51.4285304,58.9146154 L51.4285304,73.4512308 C57.7916464,72.9610769 59.7282873,69.2041538 59.7282873,66.2646154 C59.7282873,61.8546154 55.910232,60.2207692 51.4285304,58.9146154 L51.4285304,58.9146154 Z M77.0304309,25.7766154 L50.0107403,5 L22.9915138,25.7766154 C21.1045304,27.2272308 20,29.4656923 20,31.8375385 L20,87.1843077 C20,91.4156923 23.449105,94.8458462 27.7034033,94.8458462 L72.3180773,94.8458462 C76.5728398,94.8458462 80.0219448,91.4156923 80.0219448,87.1843077 L80.0219448,31.8375385 C80.0219448,29.4656923 78.9169503,27.2272308 77.0304309,25.7766154 L77.0304309,25.7766154 Z M51.4285304,76.2823077 L51.4285304,79.862 C51.4285304,80.5612308 50.8586298,81.128 50.1555359,81.128 C49.452442,81.128 48.8830055,80.5612308 48.8830055,79.862 L48.8830055,76.2823077 C43.9618122,76.0427692 40.1135912,74.2413846 37.451116,71.6581538 C36.852442,71.0775385 36.8111381,70.1336923 37.3601547,69.506 C37.9486188,68.8326154 38.9742541,68.7938462 39.6309392,69.4012308 C41.8316464,71.4375385 44.9261878,73.1766154 48.8830055,73.4512308 L48.8830055,58.2066154 C43.2392265,56.6276923 37.5954475,54.8853846 37.5954475,48.4607692 C37.5954475,42.7981538 42.575116,39.0961538 48.8830055,38.8238462 L48.8830055,35.1352308 C48.8830055,34.436 49.452442,33.8692308 50.1555359,33.8692308 C50.8586298,33.8692308 51.4285304,34.436 51.4285304,35.1352308 L51.4285304,38.8238462 C55.4452155,39.1533846 58.6771271,40.5804615 61.123337,42.7898462 C61.7572818,43.3616923 61.8032265,44.3387692 61.2254365,44.9669231 C60.6490387,45.5932308 59.6702762,45.6356923 59.0446851,45.0583077 C56.9270497,43.1050769 54.2975249,42.0333846 51.4285304,41.7093846 L51.4285304,55.43 C57.1275359,57.0084615 63.0479116,59.0775385 63.0479116,66.0467692 C63.0479116,70.5112308 60.1705635,75.7376923 51.4285304,76.2823077 L51.4285304,76.2823077 Z" fill="#000000" sketch:type="MSShapeGroup"/></g></svg>