<svg xmlns="http://www.w3.org/2000/svg" xmlns:xlink="http://www.w3.org/1999/xlink" version="1.1" x="0px" y="0px" viewBox="0 0 100 125" enable-background="new 0 0 100 100" xml:space="preserve"><path d="M64.3,41.8c-1.9-1.1-1.9-2.8,0-3.9c1.8-1.1,4.8-1.1,6.7,0c1.9,1.1,1.9,2.8,0,3.9C69.2,42.8,66.2,42.8,64.3,41.8z M35.7,17.5  c-1.9-1.1-4.9-1.1-6.7,0c-1.8,1.1-1.8,2.8,0,3.9c1.9,1.1,4.9,1.1,6.7,0C37.6,20.3,37.6,18.6,35.7,17.5z M62.1,36.7  c-6.6,3.9-17.5,3.9-24.2,0c-6.7-3.9-6.7-10.2-0.1-14c6.7-3.9,17.5-3.9,24.2,0C68.8,26.5,68.8,32.8,62.1,36.7z M58.9,31.7l0-2.7  l-10.8,0l0-2.6l-4.7,0l0,2.6l0,2.7l4.7,0L58.9,31.7z M98.3,36.6L98.3,36.6l0,19.8v2.1v19.8l-0.2,0l0.2,0.2l-33,19.2  c-1.6,0.9-4.1,0.9-5.6,0L58.6,97l-0.8-0.5L1.7,64.1v0v-0.4V44.2v-0.5V43V23c-0.2-1.3,0.6-2.6,2.2-3.5L32.2,3c3-1.8,8-1.8,11,0  l52.8,30.5C97.6,34.3,98.3,35.5,98.3,36.6z M59.5,87.6l-1-0.6l-0.8-0.5L6.6,57v4.5l53,30.6V87.6z M59.5,77.6l-0.9-0.5l-0.8-0.5  L6.6,47v4.6l53,30.6V77.6z M59.5,67.7l-1-0.6l-0.8-0.5L6.6,37.1v4.5l53,30.6V67.7z M59.5,57.3c-1-0.2-2-0.6-2.8-1l-50.2-29v4.3  l53,30.6V57.3z M67.1,49.6c0.5,0.3,0.9,0.6,1.2,0.9l17.1-9.9c-0.6-0.2-1.1-0.4-1.6-0.7c-3.1-1.8-3.1-4.7,0-6.5  c0.5-0.3,1-0.5,1.5-0.7L44.2,9c-0.3,0.2-0.6,0.4-0.9,0.7c-3.1,1.8-8.1,1.8-11.2,0c-0.3-0.2-0.6-0.4-0.9-0.6l-16.9,9.8  c0.4,0.2,0.7,0.3,1.1,0.5c3.1,1.8,3.1,4.7,0,6.5c-0.4,0.2-0.7,0.4-1.1,0.5l41,23.7c0.2-0.1,0.4-0.3,0.6-0.4  C59,47.8,64,47.8,67.1,49.6z M93.5,71.3L65.3,87.7c-0.3,0.2-0.6,0.3-0.9,0.4v4.7l29-16.9V71.3z M93.5,61.4L65.4,77.7  c-0.3,0.2-0.6,0.3-0.9,0.4v4.6l29-16.9V61.4z M93.5,51.4L65.3,67.8c-0.3,0.2-0.6,0.3-0.9,0.4v4.7l29-16.9V51.4z M93.5,41.4  L67.8,56.3c-1,0.6-2.1,0.9-3.4,1.1v5.4l29-16.9V41.4z"/></svg>