<svg xmlns="http://www.w3.org/2000/svg" xmlns:xlink="http://www.w3.org/1999/xlink" xmlns:sketch="http://www.bohemiancoding.com/sketch/ns" viewBox="0 0 100 125" version="1.1" x="0px" y="0px"><g stroke="none" stroke-width="1" fill="#f44336" fill-rule="evenodd" sketch:type="MSPage"><path d="M40.9853969,33.9901538 C40.9853969,37.8015385 44.6500534,39.2170769 48.9801221,40.4152308 L48.9801221,27.3481538 C44.3720611,27.5655385 40.9853969,30.2881538 40.9853969,33.9901538 L40.9853969,33.9901538 Z M51.5342061,44.6073846 L51.5342061,59.1444615 C57.9187176,58.6543077 59.8618702,54.8973846 59.8618702,51.9573846 C59.8618702,47.5473846 56.0309771,45.9135385 51.5342061,44.6073846 L51.5342061,44.6073846 Z M72.4939924,5 L27.729771,5 C23.4607023,5 20,8.43015385 20,12.6615385 L20,68.0087692 C20,70.3806154 21.1082443,72.6186154 23.0015725,74.0696923 L50.1121145,94.8463077 L77.2221908,74.0696923 C79.1155191,72.6186154 80.2237634,70.3806154 80.2237634,68.0087692 L80.2237634,12.6615385 C80.2237634,8.43015385 76.7630611,5 72.4939924,5 L72.4939924,5 Z M51.5342061,61.9755385 L51.5342061,65.5552308 C51.5342061,66.254 50.9623893,66.8207692 50.2573969,66.8207692 C49.5519389,66.8207692 48.9801221,66.254 48.9801221,65.5552308 L48.9801221,61.9755385 C44.0428473,61.7355385 40.181687,59.9341538 37.5102595,57.3513846 C36.9095725,56.7703077 36.8681298,55.8264615 37.4185267,55.1987692 C38.0094351,54.5258462 39.0380534,54.4866154 39.6969466,55.0944615 C41.9050534,57.1303077 45.0104656,58.8693846 48.9801221,59.1444615 L48.9801221,43.8993846 C43.3173664,42.3204615 37.6546107,40.5781538 37.6546107,34.1535385 C37.6546107,28.4909231 42.6514885,24.7889231 48.9801221,24.5166154 L48.9801221,20.828 C48.9801221,20.1287692 49.5519389,19.562 50.2573969,19.562 C50.9623893,19.562 51.5342061,20.1287692 51.5342061,20.828 L51.5342061,24.5166154 C55.5643969,24.8461538 58.8071756,26.2732308 61.2620763,28.4826154 C61.897687,29.0549231 61.9437863,30.0315385 61.3640534,30.6596923 C60.7861832,31.286 59.8041298,31.3284615 59.1759695,30.7510769 C57.0516794,28.7978462 54.4128473,27.7266154 51.5342061,27.4021538 L51.5342061,41.1227692 C57.252374,42.7012308 63.1926565,44.7707692 63.1926565,51.7395385 C63.1926565,56.204 60.3060992,61.4309231 51.5342061,61.9755385 L51.5342061,61.9755385 Z" fill="#000000" sketch:type="MSShapeGroup"/></g></svg>